<?xml version="1.0" standalone="no"?>
<!DOCTYPE svg PUBLIC "-//W3C//DTD SVG 20010904//EN"
 "http://www.w3.org/TR/2001/REC-SVG-20010904/DTD/svg10.dtd">
<svg version="1.0" xmlns="http://www.w3.org/2000/svg"
 width="512.000000pt" height="512.000000pt" viewBox="0 0 512.000000 512.000000"
 preserveAspectRatio="xMidYMid meet">
<metadata>
Created by potrace 1.14, written by Peter Selinger 2001-2017
</metadata>
<g transform="translate(0.000000,512.000000) scale(0.100000,-0.100000)"
fill="#000000" stroke="none">
<path d="M1965 4394 c-239 -39 -396 -171 -450 -379 -50 -196 25 -411 235 -674
102 -127 180 -211 515 -553 230 -236 285 -288 307 -288 32 0 111 62 171 133
71 83 85 62 -297 438 -205 202 -362 365 -401 418 -127 168 -179 315 -143 401
36 86 113 139 202 140 99 0 246 -54 339 -125 64 -49 113 -68 153 -61 17 4 62
29 99 56 88 65 161 99 254 118 138 28 229 -7 278 -106 75 -153 -33 -350 -384
-699 -224 -223 -221 -213 -111 -329 75 -79 117 -108 142 -98 15 6 426 435 510
534 102 118 186 264 229 395 97 294 -35 555 -327 652 -70 23 -97 27 -201 26
-104 0 -132 -4 -205 -28 -47 -15 -125 -48 -175 -73 -123 -62 -148 -61 -287 11
-61 32 -137 62 -178 71 -74 17 -224 28 -275 20z"/>
<path d="M1010 3547 c-30 -8 -73 -21 -94 -31 -112 -48 -221 -178 -267 -317
-21 -64 -24 -92 -24 -214 1 -158 10 -199 78 -350 57 -124 55 -146 -16 -270
-82 -143 -109 -231 -115 -380 -3 -91 0 -136 12 -185 65 -257 268 -407 526
-387 96 8 174 33 305 97 132 66 184 106 561 436 175 154 358 312 405 352 89
74 116 114 105 156 -7 27 -121 138 -167 162 -18 9 -41 13 -55 10 -36 -9 -132
-93 -339 -296 -274 -268 -457 -414 -613 -488 -69 -33 -85 -37 -158 -37 -72 0
-85 3 -120 27 -82 58 -112 141 -89 249 18 91 62 181 128 268 86 112 91 158 28
246 -69 97 -121 247 -121 349 1 89 52 167 132 200 83 35 184 9 317 -81 90 -61
179 -145 360 -344 63 -68 132 -143 153 -166 39 -42 60 -51 85 -35 47 30 173
159 178 183 9 42 -6 63 -134 189 -64 63 -184 185 -266 271 -154 160 -252 241
-365 302 -143 78 -313 111 -430 84z"/>
<path d="M3930 3533 c-102 -17 -265 -93 -370 -172 -140 -106 -959 -949 -1159
-1195 -234 -286 -342 -583 -328 -900 7 -159 30 -256 92 -385 64 -132 126 -220
233 -332 128 -134 294 -244 400 -265 l33 -7 -56 92 c-143 236 -242 503 -276
739 -28 198 3 439 81 625 90 217 331 517 774 966 273 276 368 359 463 403 203
95 343 -4 332 -235 -4 -67 -8 -79 -49 -141 -114 -176 -108 -319 24 -519 88
-134 104 -213 60 -298 -21 -41 -74 -90 -119 -110 -141 -65 -368 59 -723 394
-154 145 -178 159 -229 131 -38 -20 -138 -124 -155 -161 -6 -12 -8 -32 -4 -46
5 -22 140 -142 491 -436 178 -150 312 -224 483 -267 205 -52 337 -21 467 110
124 125 182 276 172 446 -8 137 -39 225 -151 434 -36 68 -33 103 18 215 64
141 80 213 80 361 0 140 -14 203 -67 305 -95 178 -311 282 -517 248z"/>
</g>
</svg>
